<svg xmlns="http://www.w3.org/2000/svg" width="558.391" height="178.202" viewBox="0 0 558.391 178.202"><g fill="#f0f0f0"><path d="M358.715 76.18c-9.751 0-13.297-7.042-13.297-16.741 0-8.865 3.201-16.499 13.592-16.499 2.757 0 5.317.395 7.731 1.182l-1.232 3.154c-2.067-.888-4.135-1.529-6.499-1.529-7.732 0-9.85 6.255-9.85 13.643 0 7.828 2.216 13.984 9.555 13.984 2.461 0 4.578-.739 7.139-1.773l1.233 3.152c-2.808.984-5.271 1.427-8.372 1.427zM394.569 75.343l-3.395-9.505h-13.1l-3.595 9.505h-3.792l12.951-31.86h2.955l12.015 31.86h-4.039zm-9.65-27.33l-5.811 15.118h11.129l-5.318-15.118zm-1.527-6.255h-2.561l4.729-5.761h3.643l-5.811 5.761zM433.135 75.343V47.371l-10.883 27.972h-2.955l-10.981-27.972v27.972h-3.298v-31.86h5.514l10.391 26.837 10.49-26.837h5.219v31.86h-3.497zM466.974 75.343l-3.396-9.505h-13.099l-3.595 9.505h-3.792l12.95-31.86h2.955l12.016 31.86h-4.039zm-9.652-27.33l-5.811 15.118h11.13l-5.319-15.118zM494.853 75.343l-10.489-14.231h-3.348v14.231h-3.595v-31.86h9.946c5.072 0 10.146 1.921 10.146 8.567 0 4.63-2.118 8.667-8.964 8.964l10.735 14.329h-4.431zm-7.24-29.054h-6.598v12.016h6.647c4.629 0 6.155-2.709 6.155-6.255.001-3.743-2.214-5.761-6.204-5.761zM527.015 75.343l-3.396-9.505h-13.1l-3.594 9.505h-3.793l12.951-31.86h2.955l12.015 31.86h-4.038zm-9.652-27.33l-5.811 15.118h11.13l-5.319-15.118zM358.715 127.078c-9.751 0-13.297-7.042-13.297-16.743 0-8.863 3.201-16.495 13.592-16.495 2.757 0 5.317.393 7.731 1.182l-1.232 3.15c-2.067-.886-4.135-1.525-6.499-1.525-7.732 0-9.85 6.253-9.85 13.639 0 7.831 2.216 13.986 9.555 13.986 2.461 0 4.578-.739 7.139-1.774l1.233 3.152c-2.808.984-5.271 1.428-8.372 1.428zM392.502 126.241V111.22h-15.019v15.021h-3.595v-31.86h3.595v13.984h15.019V94.381h3.595v31.86h-3.595zM405.165 126.241v-31.86h3.595v31.86h-3.595zM417.823 126.241v-31.86h3.595v28.907h14.575v2.953h-18.17zM441.22 126.241v-31.86h17.63v2.807h-14.035v11.178h12.999v2.808h-12.999v12.261h14.478v2.808H441.22zM485.94 126.241l-15.02-27.627v27.627h-3.298v-31.86h5.121l14.92 27.625V94.381h3.496v31.86h-5.219zM521.5 126.241l-3.396-9.503h-13.1l-3.595 9.503h-3.792l12.951-31.86h2.955l12.015 31.86H521.5zm-9.651-27.33l-5.81 15.116h11.129l-5.319-15.116zM354.922 177.14h-7.779v-31.86h7.779c11.03 0 15.218 4.333 15.218 15.806 0 11.573-4.433 16.054-15.218 16.054zm0-29.054h-4.185v26.246h4.628c7.485 0 11.031-3.988 11.031-13.197 0-9.946-3.201-13.049-11.474-13.049zM378.074 177.14v-31.86h17.629v2.807h-14.034v11.178h12.999v2.807h-12.999v12.262h14.478v2.808h-18.073zM404.477 177.14v-31.86h3.594v28.905h14.576v2.955h-18.17zM439.89 177.14v-31.86h3.595v28.905h14.575v2.955h-18.17zM462.695 177.14v-31.86h3.595v31.86h-3.595zM485.644 177.14h-10.29v-31.86h8.665c6.205 0 10.735 1.479 10.735 8.32 0 3.35-2.116 5.812-5.071 6.847 3.94.789 6.55 3.249 6.55 7.631-.001 7.288-4.777 9.062-10.589 9.062zm-1.625-29.054h-5.07v11.277h5.76c3.498 0 6.354-1.675 6.354-5.714-.002-4.431-2.217-5.563-7.044-5.563zm.789 14.035h-5.859v12.211h6.4c4.186 0 7.141-.983 7.141-6.255-.001-4.973-3.497-5.956-7.682-5.956zM521.353 177.14l-10.489-14.231h-3.348v14.231h-3.595v-31.86h9.946c5.072 0 10.146 1.921 10.146 8.567 0 4.63-2.118 8.667-8.964 8.963l10.735 14.33h-4.431zm-7.24-29.054h-6.598v12.016h6.647c4.629 0 6.155-2.709 6.155-6.255.001-3.743-2.214-5.761-6.204-5.761zM544.849 177.977c-10.589 0-13.74-7.141-13.74-16.646 0-9.404 3.597-16.595 13.788-16.595 10.343 0 13.494 7.042 13.494 16.595 0 9.457-3.449 16.646-13.542 16.646zm0-30.434c-7.583 0-9.997 5.367-9.997 13.788s2.414 13.839 9.997 13.839c7.682 0 9.8-5.664 9.8-13.839-.001-8.469-2.267-13.788-9.8-13.788z"/></g><path fill="#f0f0f0" d="M282.658 143.551c0 27.184 9.642 34.651 9.642 34.651H20.564S0 164.973 0 146.932c0-22.856 20.564-36.091 20.564-36.091H292.3c0 .001-9.642 8.84-9.642 32.71zM105.154 104.007s73.21-11.6 115.805-36.173c54.267-31.312 68.908-55.774 68.908-55.774s-11.949 38.693-67.569 67.545c-51.594 26.762-117.144 24.402-117.144 24.402z"/><path fill="#706F6F" d="M283.956 129.481H28.983v-1.828h255.371l-.398 1.828zM285.252 164.622H28.983v-1.828h255.771l.498 1.828zM282.69 146.877H20.664v-1.828h261.994l.032 1.828z"/><path fill="#f0f0f0" d="M167.799 18.152c-.895 32.187-44.945 67.495-105.057 82.13-12.806 3.117-25.388 5.046-37.425 5.91l-.017.054c18.843.668 38.578-.368 58.755-3.317C168.299 90.601 235.718 48.643 258.284 0l-90.485 18.152z"/></svg>