<?xml version="1.0" standalone="no"?>
<!DOCTYPE svg PUBLIC "-//W3C//DTD SVG 20010904//EN"
 "http://www.w3.org/TR/2001/REC-SVG-20010904/DTD/svg10.dtd">
<svg version="1.0" xmlns="http://www.w3.org/2000/svg"
 width="512.000000pt" height="512.000000pt" viewBox="0 0 512.000000 512.000000"
 preserveAspectRatio="xMidYMid meet">
<metadata>
Created by potrace 1.11, written by Peter Selinger 2001-2013
</metadata>
<g transform="translate(0.000000,512.000000) scale(0.100000,-0.100000)"
fill="#000000" stroke="none">
<path d="M717 5105 c-332 -66 -599 -316 -689 -645 l-23 -85 0 -1805 c0 -993 4
-1825 8 -1850 10 -50 45 -157 73 -216 93 -202 295 -383 504 -454 68 -22 83
-26 165 -40 28 -5 838 -9 1800 -9 1854 -1 1825 -2 1960 44 285 97 491 316 578
615 l22 75 3 1785 c2 1547 0 1797 -13 1870 -33 187 -115 342 -256 480 -108
107 -275 200 -399 224 -14 3 -47 9 -75 15 -33 7 -657 10 -1820 10 -1443 -1
-1783 -3 -1838 -14z"/>
</g>
</svg>
